<svg width="146" height="42" viewBox="0 0 146 42" fill="none" xmlns="http://www.w3.org/2000/svg">
<path d="M125.906 41.9998V35.7444H134.753C137.121 35.7444 138.864 34.0018 138.864 31.6337V31.2762H125.906V10.7227H132.609V25.0208H138.864V10.7227H145.566V32.0805C145.566 37.7997 141.188 41.9998 135.2 41.9998H125.906Z" fill="#FDF6E2"/>
<path d="M104.141 31.2771V0H114.239C119.779 0 123.801 3.97667 123.801 9.38314C123.801 11.7066 122.996 13.7619 121.165 15.3258C123.175 17.0237 124.024 19.1684 124.024 21.6706C124.024 27.2111 119.913 31.2771 114.239 31.2771H104.141ZM113.926 24.3515C115.624 24.3515 116.875 23.1451 116.875 21.5365C116.875 19.928 115.624 18.7663 113.926 18.7663H111.29V24.3515H113.926ZM113.926 12.064C115.49 12.064 116.652 10.947 116.652 9.4725C116.652 7.99801 115.49 6.92565 113.926 6.92565H111.29V12.064H113.926Z" fill="#FDF6E2"/>
<path d="M92.1206 31.2771C86.446 31.2771 81.8438 26.6749 81.8438 21.0004C81.8438 15.3258 86.446 10.7236 92.1206 10.7236H95.6952V0H102.398V31.2771H92.1206ZM92.7909 25.0217H95.6952V16.979H92.7909C90.378 16.979 88.7695 18.7663 88.7695 21.0004C88.7695 23.2344 90.378 25.0217 92.7909 25.0217Z" fill="#FDF6E2"/>
<path d="M72.2441 31.2764C65.7205 31.2764 61.2969 26.9869 61.2969 20.9995C61.2969 15.0121 65.7205 10.7227 72.2888 10.7227H81.136V16.3079H72.0207C70.2334 16.3079 68.7589 17.0228 67.9993 18.3186H80.4657V23.6805H67.9993C68.7589 24.9762 70.2334 25.6912 72.0207 25.6912H81.136V31.2764H72.2441Z" fill="#FDF6E2"/>
<path d="M47.9066 31.2764L39.9531 10.7227H47.3258L51.7493 22.6081L56.1729 10.7227H63.3668L55.4133 31.2764H47.9066Z" fill="#FDF6E2"/>
<path d="M28.8239 31.2764C23.1492 31.2764 18.5469 26.6742 18.5469 20.9995C18.5469 15.3249 23.1492 10.7227 28.8239 10.7227H39.1009V31.2764H28.8239ZM29.4941 25.0209H32.3985V16.9781H29.4941C27.0813 16.9781 25.4727 18.7654 25.4727 20.9995C25.4727 23.2336 27.0813 25.0209 29.4941 25.0209Z" fill="#FDF6E2"/>
<path d="M0 31.2771V24.3515H5.45122C8.08747 24.3515 10.0088 22.3408 10.0088 19.5705V11.3938C10.0088 4.3788 14.4323 0 21.6262 0H27.0774V6.92565H21.7155C18.8559 6.92565 17.1579 8.93632 17.1579 11.7066V21.045C17.1579 27.5239 12.7344 31.2771 6.12146 31.2771H0Z" fill="#FDF6E2"/>
</svg>
